<svg width="20" height="20" viewBox="0 0 20 20" fill="none" xmlns="http://www.w3.org/2000/svg">
<path d="M19.1655 9.16613C18.9441 9.16613 18.7318 9.07836 18.5753 8.92211C18.4188 8.76586 18.3309 8.55395 18.3309 8.33298C18.3291 6.5658 17.6252 4.8715 16.3735 3.62191C15.1218 2.37233 13.4247 1.66953 11.6545 1.66777C11.4332 1.66777 11.2209 1.57999 11.0644 1.42375C10.9079 1.2675 10.82 1.05558 10.82 0.834618C10.82 0.613652 10.9079 0.401737 11.0644 0.245491C11.2209 0.0892443 11.4332 0.00146607 11.6545 0.00146607C13.8672 0.00389187 15.9884 0.882453 17.553 2.44439C19.1175 4.00633 19.9976 6.12407 20 8.33298C20 8.55395 19.9121 8.76586 19.7556 8.92211C19.5991 9.07836 19.3868 9.16613 19.1655 9.16613ZM16.6618 8.33298C16.6618 7.00719 16.1343 5.7357 15.1952 4.79822C14.2562 3.86074 12.9826 3.33407 11.6545 3.33407C11.4332 3.33407 11.2209 3.42185 11.0644 3.5781C10.9079 3.73434 10.82 3.94626 10.82 4.16722C10.82 4.38819 10.9079 4.60011 11.0644 4.75635C11.2209 4.9126 11.4332 5.00038 11.6545 5.00038C12.5399 5.00038 13.389 5.35149 14.015 5.97647C14.641 6.60146 14.9927 7.44912 14.9927 8.33298C14.9927 8.55395 15.0807 8.76586 15.2372 8.92211C15.3937 9.07836 15.6059 9.16613 15.8273 9.16613C16.0486 9.16613 16.2609 9.07836 16.4174 8.92211C16.5739 8.76586 16.6618 8.55395 16.6618 8.33298ZM18.4836 18.4674L19.2431 17.5935C19.7264 17.1093 19.9979 16.4537 19.9979 15.7701C19.9979 15.0866 19.7264 14.4309 19.2431 13.9468C19.2172 13.9209 17.2093 12.3788 17.2093 12.3788C16.7274 11.9208 16.0873 11.6658 15.4219 11.6667C14.7566 11.6677 14.1172 11.9245 13.6366 12.3838L12.0459 13.7218C10.7475 13.1853 9.56808 12.3981 8.57531 11.4052C7.58253 10.4124 6.796 9.23356 6.26088 7.9364L7.59615 6.35341C8.05658 5.87366 8.31411 5.23522 8.3152 4.57081C8.31628 3.90639 8.06085 3.26711 7.60199 2.78586C7.60199 2.78586 6.05558 0.783795 6.02971 0.757968C5.55356 0.279529 4.90798 0.00731647 4.23245 0.000145342C3.55693 -0.00702579 2.9057 0.25142 2.41946 0.719643L1.45974 1.55279C-4.21017 8.1197 7.99923 20.2146 14.7941 19.9971C15.4803 20.0011 16.1602 19.8678 16.7939 19.605C17.4276 19.3423 18.0022 18.9555 18.4836 18.4674Z" fill="#08E18A"/>
</svg>
